<svg width="6" height="8" viewBox="0 0 6 8" fill="none" xmlns="http://www.w3.org/2000/svg">
<path d="M1.20665 0.000137755C1.08841 -0.00246282 0.972305 0.0318128 0.874464 0.0982521C0.776623 0.164691 0.701914 0.260011 0.660723 0.370872C0.619532 0.481734 0.613907 0.602658 0.644628 0.716865C0.67535 0.831071 0.740892 0.932823 0.832142 1.00806L4.31387 3.9908L0.832142 6.97249C0.76902 7.01889 0.716156 7.07778 0.676862 7.14555C0.637568 7.21332 0.61269 7.2885 0.603786 7.36633C0.594881 7.44416 0.602143 7.52297 0.625115 7.59787C0.648088 7.67276 0.686276 7.74212 0.737289 7.80158C0.788302 7.86103 0.851041 7.90925 0.921577 7.94333C0.992112 7.97741 1.06893 7.99656 1.1472 7.99958C1.22548 8.0026 1.30354 7.98947 1.3765 7.96092C1.44945 7.93238 1.51572 7.88908 1.57116 7.83373L5.55742 4.42309C5.62002 4.36967 5.67029 4.30337 5.70475 4.22864C5.73922 4.15391 5.75707 4.07257 5.75707 3.99027C5.75707 3.90798 5.73922 3.82664 5.70475 3.75191C5.67029 3.67718 5.62002 3.61081 5.55742 3.55739L1.57116 0.14347C1.47046 0.0540263 1.3413 0.00317536 1.20665 6.49802e-06V0.000137755Z" fill="black"/>
</svg>
