<svg width="17" height="15" viewBox="0 0 17 15" fill="none" xmlns="http://www.w3.org/2000/svg">
<path d="M11.8735 8.22639C12.4677 8.22639 12.9906 7.92855 13.26 7.47814L16.0964 2.76343C16.1632 2.65331 16.1974 2.52912 16.1958 2.40314C16.1941 2.27716 16.1566 2.15376 16.087 2.04515C16.0174 1.93654 15.918 1.84648 15.7988 1.78388C15.6795 1.72129 15.5445 1.68833 15.4071 1.68827H3.68133L2.93659 0.235352H0.345825V1.68827H1.93039L4.7826 7.20209L3.71302 8.97464C3.13466 9.9481 3.89525 11.1322 5.09952 11.1322H14.6069V9.67931H5.09952L5.97103 8.22639H11.8735ZM4.434 3.14118H14.0602L11.8735 6.77348H6.31171L4.434 3.14118ZM5.09952 11.8587C4.22801 11.8587 3.52288 12.5125 3.52288 13.3116C3.52288 14.1107 4.22801 14.7645 5.09952 14.7645C5.97103 14.7645 6.68408 14.1107 6.68408 13.3116C6.68408 12.5125 5.97103 11.8587 5.09952 11.8587ZM13.0223 11.8587C12.1508 11.8587 11.4457 12.5125 11.4457 13.3116C11.4457 14.1107 12.1508 14.7645 13.0223 14.7645C13.8938 14.7645 14.6069 14.1107 14.6069 13.3116C14.6069 12.5125 13.8938 11.8587 13.0223 11.8587Z" fill="#4A4A4A"/>
</svg>
