<svg width="20" height="20" viewBox="0 0 20 20" fill="none" xmlns="http://www.w3.org/2000/svg">
<g clip-path="url(#clip0_105_1960)">
<path d="M7.57496 7.50008C7.77088 6.94314 8.15759 6.4735 8.66659 6.17436C9.17559 5.87521 9.77404 5.76586 10.3559 5.86567C10.9378 5.96549 11.4656 6.26802 11.8459 6.71969C12.2261 7.17136 12.4342 7.74302 12.4333 8.33341C12.4333 10.0001 9.93329 10.8334 9.93329 10.8334M9.99996 14.1667H10.0083M18.3333 10.0001C18.3333 14.6025 14.6023 18.3334 9.99996 18.3334C5.39759 18.3334 1.66663 14.6025 1.66663 10.0001C1.66663 5.39771 5.39759 1.66675 9.99996 1.66675C14.6023 1.66675 18.3333 5.39771 18.3333 10.0001Z" stroke="#D9D9D9" stroke-width="2" stroke-linecap="round" stroke-linejoin="round"/>
</g>
<defs>
<clipPath id="clip0_105_1960">
<rect width="20" height="20" fill="white"/>
</clipPath>
</defs>
</svg>
