<svg xmlns="http://www.w3.org/2000/svg" width="32" height="32" viewBox="0 0 32 32" fill="none">
    <path d="M31.4746 22.1373L27.4811 20.1406L18.4248 24.6689C18.293 24.7348 18.1475 24.7692 18 24.7692C17.8526 24.7692 17.7073 24.7348 17.5754 24.6689L8.51863 20.1406L4.52512 22.1373C4.36749 22.216 4.23478 22.337 4.14197 22.4869C4.04916 22.6368 4 22.8096 4 22.986C4 23.1622 4.04916 23.335 4.14197 23.4849C4.23478 23.6348 4.36749 23.7558 4.52512 23.8345L17.5753 30.3574C17.7072 30.4235 17.8524 30.4579 17.9999 30.4579C18.1474 30.4579 18.2929 30.4235 18.4247 30.3574L31.4744 23.8323C31.6318 23.7536 31.7641 23.6325 31.8564 23.4829C31.9488 23.3332 31.9977 23.1606 31.9977 22.9846C31.9977 22.8087 31.9488 22.6363 31.8564 22.4866C31.7641 22.3369 31.6318 22.2159 31.4744 22.137L31.4746 22.1373Z" fill="#6C5FA4"/>
    <path d="M31.4746 6.96566L18.425 0.442809C18.2932 0.376672 18.1476 0.342285 18.0002 0.342285C17.8527 0.342285 17.7074 0.376676 17.5756 0.442809L4.52536 6.96792C4.36774 7.0464 4.23503 7.16765 4.14221 7.31756C4.04941 7.46724 4.00024 7.64008 4.00024 7.81644C4.00024 7.9928 4.0494 8.16541 4.14221 8.31532C4.23502 8.46522 4.36774 8.58626 4.52536 8.66496L17.5756 15.1884C17.7074 15.2543 17.8527 15.2887 18.0002 15.2887C18.1476 15.2887 18.2932 15.2543 18.425 15.1884L31.4746 8.66326C31.6325 8.58456 31.7652 8.46353 31.858 8.31363C31.9508 8.16372 32 7.99088 32 7.81452C32 7.63838 31.9508 7.46554 31.858 7.31564C31.7652 7.16573 31.6325 7.0447 31.4746 6.966V6.96566Z" fill="#6C5FA4"/>
    <path d="M31.4746 14.5523L27.4811 12.5557L18.4248 17.0837C18.293 17.1499 18.1475 17.1843 18 17.1843C17.8526 17.1843 17.7073 17.1499 17.5754 17.0837L8.51863 12.5557L4.52512 14.5523C4.36749 14.631 4.23478 14.752 4.14197 14.9019C4.04916 15.0518 4 15.2247 4 15.4008C4 15.5772 4.04916 15.75 4.14197 15.8999C4.23478 16.0498 4.36749 16.1709 4.52512 16.2496L17.5753 22.7724C17.7072 22.8386 17.8524 22.8729 17.9999 22.8729C18.1474 22.8729 18.2929 22.8386 18.4247 22.7724L31.4744 16.2473C31.6318 16.1684 31.7641 16.0474 31.8564 15.8977C31.9488 15.748 31.9977 15.5756 31.9977 15.3997C31.9977 15.2238 31.9488 15.0514 31.8564 14.9017C31.7641 14.752 31.6318 14.631 31.4744 14.552L31.4746 14.5523Z" fill="#6C5FA4"/>
</svg>