<svg xmlns="http://www.w3.org/2000/svg" width="32" height="32" viewBox="0 0 32 32" fill="none">
<path d="M31.68 3.85915H18.8352V0.720003H31.68V3.85915ZM17.1648 13.5648H13.9967V0.719951H17.1358V13.5648H17.1648ZM12.3263 13.5648H9.15818V0.719951H12.2973L12.2975 13.5648H12.3263ZM17.1648 15.235V18.3741L4.31999 18.3743V15.235L17.1648 15.235ZM17.1648 20.0735V23.2126H4.31999V20.0735H17.1648ZM18.835 15.235H21.9742V28.0798H18.835V15.235ZM23.6735 15.235H26.8127V28.0798H23.6735V15.235ZM18.835 13.5648V10.3966H31.6798V13.5358H18.835V13.5648ZM18.835 8.72625V5.55815H31.6798V8.69729L18.835 8.6975V8.72625ZM7.45903 0.719849V13.5646H4.31989V0.719849H7.45903ZM4.31989 24.9406H17.1647V28.0798H4.31989V24.9406ZM28.5407 28.0798V15.235H31.6798V28.0798H28.5407Z" fill="#6C5FA4"/>
</svg>