<svg xmlns="http://www.w3.org/2000/svg" width="32" height="32" viewBox="0 0 32 32" fill="none">
    <path d="M23.5435 15.4692C22.8269 14.7526 21.7055 14.6925 20.9184 15.286L13.2869 7.65452L12.2457 3.79455C12.1969 3.61395 12.0215 3.39477 11.8558 3.30658L7.36545 0.929397C7.20052 0.841207 6.95623 0.877968 6.82442 1.01056L4.61037 3.22461C4.47758 3.3572 4.44102 3.60068 4.52921 3.76661L6.90639 8.25597C6.99458 8.42171 7.21356 8.59728 7.39416 8.6453L11.2543 9.68734L18.8848 17.3178C18.2922 18.1041 18.3524 19.2273 19.068 19.9429L26.4547 27.3296C27.2392 28.114 28.5108 28.114 29.2955 27.3296L30.9292 25.6959C31.7137 24.9122 31.7137 23.6405 30.9292 22.8551L23.5435 15.4692Z" fill="#6C5FA4"/>
    <path d="M21.2066 13.6497C21.5051 13.5651 21.8149 13.5213 22.1265 13.5213C22.2355 13.5213 22.3438 13.5273 22.4503 13.538L25.949 10.0392C27.5443 10.4231 29.2959 9.99907 30.5412 8.75374C31.7824 7.51184 32.2091 5.76908 31.8312 4.17798L29.1912 6.81791L26.3452 6.05513L25.5832 3.2101L28.2232 0.570165C26.6313 0.192283 24.8885 0.618982 23.6474 1.86092C22.4021 3.10626 21.977 4.85705 22.3619 6.45313L18.1859 10.6291L21.2066 13.6497Z" fill="#6C5FA4"/>
    <path d="M14.2282 14.5857L10.0523 18.7616C8.45696 18.3767 6.7054 18.8018 5.46006 20.0472C4.21893 21.289 3.79223 23.0318 4.17013 24.6229L6.81006 21.983L9.65612 22.7458L10.4181 25.5908L7.77815 28.2307C9.37002 28.6086 11.1128 28.1819 12.3539 26.94C13.5992 25.6946 14.0243 23.9438 13.6394 22.3478L17.1452 18.8412C17.1068 18.4283 17.1382 18.0103 17.2509 17.6071L14.2282 14.5857Z" fill="#6C5FA4"/>
</svg>