<svg width="48" height="49" viewBox="0 0 48 49" fill="none" xmlns="http://www.w3.org/2000/svg">
<path d="M38 34.5C40.42 34.5 44 32.9 44 28.5C44 24.1 40.42 22.5 38 22.5H34V18.5H38C42.4 18.5 44 14.92 44 12.5C44 8.1 40.42 6.5 38 6.5H34V4.5H32V6.5H16V4.5H14V6.5H4V10.5H14V14.5H10C7.58 14.5 4 16.1 4 20.5C4 24.9 7.58 26.5 10 26.5H14V30.5H10C7.58 30.5 4 32.1 4 36.5C4 40.9 7.58 42.5 10 42.5H14V44.5H16V42.5H32V44.5H34V42.5H44V38.5H34V34.5H38ZM38 26.5C38.9 26.5 40 26.88 40 28.5C40 30.12 38.9 30.5 38 30.5H34V26.5H38ZM32 22.5H16V18.5H32V22.5ZM38 10.5C38.9 10.5 40 10.9 40 12.5C40 13.4 39.62 14.5 38 14.5H34V10.5H38ZM16 10.5H32V14.5H16V10.5ZM10 22.5C9.1 22.5 8 22.12 8 20.5C8 18.88 9.1 18.5 10 18.5H14V22.5H10ZM16 26.5H32V30.5H16V26.5ZM10 38.5C9.1 38.5 8 38.12 8 36.5C8 34.88 9.1 34.5 10 34.5H14V38.5H10ZM32 38.5H16V34.5H32V38.5Z" fill="#777777"/>
</svg>
