<svg width="18" height="17" viewBox="0 0 18 17" fill="none" xmlns="http://www.w3.org/2000/svg">
<path d="M9.51132 0.914551V1.98067L13.6824 3.37214L16.7122 2.36274L17.2403 3.9444L14.711 4.78779L17.2937 11.8886C16.8269 12.3758 16.2663 12.7634 15.6456 13.0279C15.0249 13.2924 14.3571 13.4284 13.6824 13.4277C13.0077 13.4285 12.3398 13.2925 11.7191 13.028C11.0984 12.7634 10.5378 12.3758 10.0711 11.8886L12.6521 4.78779L9.51132 3.74002V15.0961H12.8482V16.7646H4.50605V15.0961H7.8429V3.74002L4.69959 4.78779L7.28231 11.8886C6.81578 12.3759 6.2553 12.7635 5.63474 13.028C5.01418 13.2925 4.34643 13.4285 3.67184 13.4277C2.99714 13.4285 2.32927 13.2925 1.70858 13.028C1.08789 12.7634 0.527262 12.3758 0.0605469 11.8886L2.64159 4.78779L0.113936 3.94524L0.641992 2.36191L3.67184 3.3713L7.8429 1.98067V0.914551H9.51132ZM13.6824 6.83995L12.049 11.333C12.5476 11.6136 13.1103 11.7605 13.6824 11.7593C14.2663 11.7593 14.8252 11.6091 15.3158 11.3338L13.6824 6.83911V6.83995ZM3.67184 6.83995L2.03846 11.333C2.53703 11.6136 3.09973 11.7605 3.67184 11.7593C4.25579 11.7593 4.81471 11.6091 5.30523 11.3338L3.67184 6.83911V6.83995Z" fill="#4A4A4A"/>
</svg>
