<svg width="16" height="15" viewBox="0 0 16 15" fill="none" xmlns="http://www.w3.org/2000/svg">
<path d="M7.8897 12.5467L7.81265 12.6238L7.7279 12.5467C4.06809 9.22594 1.64876 7.03005 1.64876 4.80335C1.64876 3.26238 2.80449 2.10665 4.34546 2.10665C5.53201 2.10665 6.68774 2.87713 7.0961 3.92499H8.5292C8.93756 2.87713 10.0933 2.10665 11.2798 2.10665C12.8208 2.10665 13.9765 3.26238 13.9765 4.80335C13.9765 7.03005 11.5572 9.22594 7.8897 12.5467ZM11.2798 0.565674C9.93919 0.565674 8.65248 1.18977 7.81265 2.16828C6.97282 1.18977 5.68611 0.565674 4.34546 0.565674C1.97236 0.565674 0.107788 2.42255 0.107788 4.80335C0.107788 7.70808 2.72744 10.0889 6.69544 13.6871L7.81265 14.7041L8.92985 13.6871C12.8979 10.0889 15.5175 7.70808 15.5175 4.80335C15.5175 2.42255 13.6529 0.565674 11.2798 0.565674Z" fill="#4A4A4A"/>
</svg>
