<svg width="58" height="11" viewBox="0 0 58 11" fill="none" xmlns="http://www.w3.org/2000/svg">
<path d="M52.8135 0.793652C52.8795 0.623354 53.1205 0.623355 53.1865 0.793652L54.2171 3.45286C54.2455 3.52608 54.3141 3.57592 54.3925 3.58028L57.2401 3.73874C57.4224 3.74889 57.4969 3.97806 57.3553 4.09346L55.1447 5.8954C55.0839 5.94502 55.0577 6.02565 55.0777 6.10156L55.807 8.85871C55.8537 9.03528 55.6587 9.17691 55.5052 9.07794L53.1084 7.53239C53.0424 7.48984 52.9576 7.48984 52.8916 7.53239L50.4948 9.07794C50.3413 9.17692 50.1463 9.03528 50.193 8.85871L50.9223 6.10156C50.9423 6.02565 50.9161 5.94502 50.8553 5.8954L48.6447 4.09346C48.5031 3.97806 48.5776 3.74889 48.7599 3.73874L51.6075 3.58028C51.6859 3.57592 51.7545 3.52608 51.7829 3.45286L52.8135 0.793652Z" fill="#D9D9D9"/>
<path d="M40.8135 0.793652C40.8795 0.623354 41.1205 0.623355 41.1865 0.793652L42.2171 3.45286C42.2455 3.52608 42.3141 3.57592 42.3925 3.58028L45.2401 3.73874C45.4224 3.74889 45.4969 3.97806 45.3553 4.09346L43.1447 5.8954C43.0839 5.94502 43.0577 6.02565 43.0777 6.10156L43.807 8.85871C43.8537 9.03528 43.6587 9.17691 43.5052 9.07794L41.1084 7.53239C41.0424 7.48984 40.9576 7.48984 40.8916 7.53239L38.4948 9.07794C38.3413 9.17691 38.1463 9.03528 38.193 8.85871L38.9223 6.10156C38.9423 6.02565 38.9161 5.94502 38.8553 5.8954L36.6447 4.09346C36.5031 3.97806 36.5776 3.74889 36.7599 3.73874L39.6075 3.58028C39.6859 3.57592 39.7545 3.52608 39.7829 3.45286L40.8135 0.793652Z" fill="#D9D9D9"/>
<path d="M28.8135 0.793652C28.8795 0.623354 29.1205 0.623355 29.1865 0.793652L30.2171 3.45286C30.2455 3.52608 30.3141 3.57592 30.3925 3.58028L33.2401 3.73874C33.4224 3.74889 33.4969 3.97806 33.3553 4.09346L31.1447 5.8954C31.0839 5.94502 31.0577 6.02565 31.0777 6.10156L31.807 8.85871C31.8537 9.03528 31.6587 9.17691 31.5052 9.07794L29.1084 7.53239C29.0424 7.48984 28.9576 7.48984 28.8916 7.53239L26.4948 9.07794C26.3413 9.17692 26.1463 9.03528 26.193 8.85871L26.9223 6.10156C26.9423 6.02565 26.9161 5.94502 26.8553 5.8954L24.6447 4.09346C24.5031 3.97806 24.5776 3.74889 24.7599 3.73874L27.6075 3.58028C27.6859 3.57592 27.7545 3.52608 27.7829 3.45286L28.8135 0.793652Z" fill="#D9D9D9"/>
<path d="M16.8135 0.793652C16.8795 0.623354 17.1205 0.623355 17.1865 0.793652L18.2171 3.45286C18.2455 3.52608 18.3141 3.57592 18.3925 3.58028L21.2401 3.73874C21.4224 3.74889 21.4969 3.97806 21.3553 4.09346L19.1447 5.8954C19.0839 5.94502 19.0577 6.02565 19.0777 6.10156L19.807 8.85871C19.8537 9.03528 19.6587 9.17691 19.5052 9.07794L17.1084 7.53239C17.0424 7.48984 16.9576 7.48984 16.8916 7.53239L14.4948 9.07794C14.3413 9.17692 14.1463 9.03528 14.193 8.85871L14.9223 6.10156C14.9423 6.02565 14.9161 5.94502 14.8553 5.8954L12.6447 4.09346C12.5031 3.97806 12.5776 3.74889 12.7599 3.73874L15.6075 3.58028C15.6859 3.57592 15.7545 3.52608 15.7829 3.45286L16.8135 0.793652Z" fill="#D9D9D9"/>
<path d="M4.81352 0.793652C4.87952 0.623354 5.12048 0.623355 5.18648 0.793652L6.21713 3.45286C6.24551 3.52608 6.3141 3.57592 6.3925 3.58028L9.24005 3.73874C9.42241 3.74889 9.49687 3.97806 9.35531 4.09346L7.14473 5.8954C7.08387 5.94502 7.05767 6.02565 7.07775 6.10156L7.80698 8.85871C7.85368 9.03528 7.65874 9.17691 7.50524 9.07794L5.10839 7.53239C5.04239 7.48984 4.95761 7.48984 4.89161 7.53239L2.49476 9.07794C2.34126 9.17692 2.14632 9.03528 2.19302 8.85871L2.92225 6.10156C2.94233 6.02565 2.91613 5.94502 2.85527 5.8954L0.644694 4.09346C0.503127 3.97806 0.577588 3.74889 0.759947 3.73874L3.6075 3.58028C3.6859 3.57592 3.75449 3.52608 3.78287 3.45286L4.81352 0.793652Z" fill="#D9D9D9"/>
</svg>
