<svg width="16" height="22" viewBox="0 0 16 22" fill="none" xmlns="http://www.w3.org/2000/svg">
<path d="M8.00004 0C3.6067 0 0.0324707 3.57423 0.0324707 7.96752C0.0324707 13.4197 7.16266 21.4239 7.46624 21.762C7.75138 22.0796 8.24921 22.079 8.53384 21.762C8.83741 21.4239 15.9676 13.4197 15.9676 7.96752C15.9675 3.57423 12.3933 0 8.00004 0ZM8.00004 11.9762C5.78964 11.9762 3.9914 10.1779 3.9914 7.96752C3.9914 5.75712 5.78968 3.95888 8.00004 3.95888C10.2104 3.95888 12.0086 5.75717 12.0086 7.96757C12.0086 10.178 10.2104 11.9762 8.00004 11.9762Z" fill="url(#paint0_linear_105_2454)"/>
<defs>
<linearGradient id="paint0_linear_105_2454" x1="14.7725" y1="1.37954e-06" x2="-4.25055" y2="4.71321" gradientUnits="userSpaceOnUse">
<stop stop-color="#7457A4"/>
<stop offset="1" stop-color="#4C3376"/>
</linearGradient>
</defs>
</svg>
